<svg width="20" height="19" viewBox="0 0 20 19" fill="none" xmlns="http://www.w3.org/2000/svg">
<g clip-path="url(#clip0_148_13)">
<path d="M18.129 -0.0033236C17.8872 0.015487 17.6499 0.0761434 17.4263 0.176279H17.4233C17.2086 0.267289 16.1881 0.726363 14.6366 1.42222L9.07666 3.9262C5.08712 5.72222 1.16536 7.49087 1.16536 7.49087L1.21206 7.47154C1.21206 7.47154 0.941672 7.56658 0.659234 7.77356C0.484745 7.8923 0.334598 8.04765 0.217876 8.23022C0.0792928 8.44768 -0.0321764 8.78031 0.00924798 9.12421C0.0770333 9.70571 0.429517 10.0544 0.682582 10.2469C0.93866 10.4418 1.18269 10.5328 1.18269 10.5328H1.18871L4.86644 11.8577C5.03139 12.4239 5.98716 15.784 6.21687 16.558C6.35245 17.0203 6.48425 17.3094 6.64919 17.5301C6.72903 17.6429 6.82242 17.7371 6.93465 17.8128C6.99299 17.8491 7.05519 17.8778 7.11993 17.8982L7.08227 17.8885C7.09356 17.8917 7.1026 17.9014 7.11089 17.9046C7.14101 17.9135 7.16135 17.9167 7.19976 17.9231C7.78196 18.1116 8.24968 17.725 8.24968 17.725L8.27604 17.7025L10.4474 15.5883L14.0867 18.5739L14.1696 18.6118C14.928 18.9677 15.6963 18.7696 16.1022 18.4201C16.5112 18.0681 16.6701 17.6179 16.6701 17.6179L16.6965 17.5454L19.5088 2.13903C19.5887 1.75888 19.609 1.4029 19.5209 1.05738C19.43 0.707699 19.2202 0.40695 18.9326 0.214133C18.6912 0.0571735 18.4112 -0.018587 18.129 -0.0033236V-0.0033236ZM18.0529 1.64773C18.0499 1.69847 18.059 1.69284 18.0379 1.79029V1.79915L15.2519 17.0453C15.2399 17.067 15.2195 17.1145 15.1638 17.162C15.105 17.212 15.0583 17.2434 14.8136 17.1395L10.3623 13.4903L7.67351 16.111L8.23838 12.2532L15.511 5.00462C15.8108 4.70662 15.7106 4.6438 15.7106 4.6438C15.7317 4.27815 15.2579 4.53668 15.2579 4.53668L6.08733 10.6118L6.08432 10.5957L1.68882 9.01307V9.00984L1.67752 9.00743C1.68523 9.00469 1.69277 9.00146 1.70011 8.99776L1.72422 8.98488L1.74756 8.97602C1.74756 8.97602 5.67233 7.20737 9.66187 5.41134C11.6593 4.51172 13.6718 3.60565 15.2195 2.90657C16.7673 2.21151 17.9113 1.7017 17.9761 1.67431C18.0379 1.64854 18.0085 1.64854 18.0529 1.64854V1.64773Z" fill="#DBDBDB"/>
</g>
<defs>
<clipPath id="clip0_148_13">
<rect width="19.5824" height="18.5241" fill="white"/>
</clipPath>
</defs>
</svg>
